<?xml version="1.0" encoding="utf-8"?>
<svg version="1.1" xmlns:xlink="http://www.w3.org/1999/xlink" width="22px" height="22px" xmlns="http://www.w3.org/2000/svg">
  <defs>
    <path d="M 0 0  L 1024 0  L 1024 1024  L 0 1024  Z " fill-rule="evenodd" fill="black" id="path1517" />
    <clipPath id="clip1518">
      <use xlink:href="#path1517" />
    </clipPath>
    <defs>
      <style type="text/css"></style>
    </defs>
    <path d="M758.217704 46.175669l-487.318878 0c-25.63075 0-46.411029 20.781302-46.411029 46.411029l0 838.826604c0 25.63075 20.781302 46.411029 46.411029 46.411029l487.318878 0c25.63075 0 46.411029-20.781302 46.411029-46.411029L804.628734 92.586698C804.628734 66.955948 783.848455 46.175669 758.217704 46.175669zM514.558265 929.554978c-28.871561 0-52.280714-23.409153-52.280714-52.280714 0-28.871561 23.409153-52.280714 52.280714-52.280714 28.871561 0 52.280714 23.409153 52.280714 52.280714C566.838979 906.144802 543.428803 929.554978 514.558265 929.554978zM758.217704 757.370407l-487.318878 0L270.898827 130.817418l487.318878 0L758.217704 757.370407z" p-id="14859" fill="#999999"></path>
    <filter x="-50.00%" y="-50.00%" width="200.00%" height="200.00%" filterUnits="objectBoundingBox" id="filter1519">
      <feColorMatrix type="matrix" values="1 0 0 0 0  0 1 0 0 0  0 0 1 0 0  0 0 0 1 0  " in="SourceGraphic" />
    </filter>
  </defs>
  <g transform="matrix(1 0 0 1 -723 -364 )">
    <g transform="matrix(0.021484375 0 0 0.021484375 723 364 )" clip-path="url(#clip1518)" filter="url(#filter1519)">
      <path d="M758.217704 46.175669l-487.318878 0c-25.63075 0-46.411029 20.781302-46.411029 46.411029l0 838.826604c0 25.63075 20.781302 46.411029 46.411029 46.411029l487.318878 0c25.63075 0 46.411029-20.781302 46.411029-46.411029L804.628734 92.586698C804.628734 66.955948 783.848455 46.175669 758.217704 46.175669zM514.558265 929.554978c-28.871561 0-52.280714-23.409153-52.280714-52.280714 0-28.871561 23.409153-52.280714 52.280714-52.280714 28.871561 0 52.280714 23.409153 52.280714 52.280714C566.838979 906.144802 543.428803 929.554978 514.558265 929.554978zM758.217704 757.370407l-487.318878 0L270.898827 130.817418l487.318878 0L758.217704 757.370407z" p-id="14859" fill="#999999"></path>
    </g>
    <path d="M 723.5 385.5  L 723.5 364.5  L 744.5 364.5  L 744.5 385.5  L 723.5 385.5  Z " stroke-width="1" stroke="#797979" fill="none" />
  </g>
</svg>