<?xml version="1.0" encoding="utf-8"?>
<svg version="1.1" xmlns:xlink="http://www.w3.org/1999/xlink" width="20px" height="19px" xmlns="http://www.w3.org/2000/svg">
  <defs>
    <path d="M 0 0  L 1024 0  L 1024 1024  L 0 1024  Z " fill-rule="evenodd" fill="black" id="path1531" />
    <clipPath id="clip1532">
      <use xlink:href="#path1531" />
    </clipPath>
    <defs>
      <style type="text/css"></style>
    </defs>
    <path d="M629.376 160 330.624 467.968 330.624 467.968 288 512 330.624 555.968 330.688 555.968 629.376 863.936 672 819.968 373.312 512 672 204.032Z" p-id="12255" fill="#1abc9c"></path>
    <filter x="-50.00%" y="-50.00%" width="200.00%" height="200.00%" filterUnits="objectBoundingBox" id="filter1533">
      <feColorMatrix type="matrix" values="1 0 0 0 0  0 1 0 0 0  0 0 1 0 0  0 0 0 1 0  " in="SourceGraphic" />
    </filter>
  </defs>
  <g transform="matrix(1 0 0 1 -593 -131 )">
    <g transform="matrix(0.0185546875 0 0 0.0185546875 593.5 131 )" clip-path="url(#clip1532)" filter="url(#filter1533)">
      <path d="M629.376 160 330.624 467.968 330.624 467.968 288 512 330.624 555.968 330.688 555.968 629.376 863.936 672 819.968 373.312 512 672 204.032Z" p-id="12255" fill="#1abc9c"></path>
    </g>
    <path d="M 593.5 149.5  L 593.5 131.5  L 612.5 131.5  L 612.5 149.5  L 593.5 149.5  Z " stroke-width="1" stroke="#ffffff" fill="none" />
  </g>
</svg>