<?xml version="1.0" encoding="utf-8"?>
<svg version="1.1" xmlns:xlink="http://www.w3.org/1999/xlink" width="20px" height="20px" xmlns="http://www.w3.org/2000/svg">
  <defs>
    <path d="M 0 0  L 1024 0  L 1024 1024  L 0 1024  Z " fill-rule="evenodd" fill="black" id="path848" />
    <clipPath id="clip849">
      <use xlink:href="#path848" />
    </clipPath>
    <defs>
      <style type="text/css"></style>
    </defs>
    <path d="M754.782 212.596 512 455.368 269.218 212.596c-13.081-13.081-34.29-13.081-47.369 0-13.081 13.081-13.081 34.288 0 47.367l242.782 242.771L221.849 745.507c-13.081 13.081-13.081 34.288 0 47.367 13.081 13.081 34.29 13.081 47.369 0L512 550.103l242.782 242.771c13.081 13.081 34.289 13.081 47.37 0 13.081-13.081 13.081-34.288 0-47.367L559.37 502.735l242.782-242.771c13.081-13.081 13.081-34.288 0-47.367C789.07 199.517 767.862 199.517 754.782 212.596z" p-id="11975" fill="#999999"></path>
    <filter x="-50.00%" y="-50.00%" width="200.00%" height="200.00%" filterUnits="objectBoundingBox" id="filter850">
      <feColorMatrix type="matrix" values="1 0 0 0 0  0 1 0 0 0  0 0 1 0 0  0 0 0 1 0  " in="SourceGraphic" />
    </filter>
  </defs>
  <g transform="matrix(1 0 0 1 -339 -14 )">
    <g transform="matrix(0.01953125 0 0 0.01953125 339 14 )" clip-path="url(#clip849)" filter="url(#filter850)">
      <path d="M754.782 212.596 512 455.368 269.218 212.596c-13.081-13.081-34.29-13.081-47.369 0-13.081 13.081-13.081 34.288 0 47.367l242.782 242.771L221.849 745.507c-13.081 13.081-13.081 34.288 0 47.367 13.081 13.081 34.29 13.081 47.369 0L512 550.103l242.782 242.771c13.081 13.081 34.289 13.081 47.37 0 13.081-13.081 13.081-34.288 0-47.367L559.37 502.735l242.782-242.771c13.081-13.081 13.081-34.288 0-47.367C789.07 199.517 767.862 199.517 754.782 212.596z" p-id="11975" fill="#999999"></path>
    </g>
    <path d="M 339.5 33.5  L 339.5 14.5  L 358.5 14.5  L 358.5 33.5  L 339.5 33.5  Z " stroke-width="1" stroke="#797979" fill="none" />
  </g>
</svg>