<?xml version="1.0" encoding="utf-8"?>
<svg version="1.1" xmlns:xlink="http://www.w3.org/1999/xlink" width="19px" height="20px" xmlns="http://www.w3.org/2000/svg">
  <defs>
    <path d="M 0 0  L 1024 0  L 1024 1024  L 0 1024  Z " fill-rule="evenodd" fill="black" id="path851" />
    <clipPath id="clip852">
      <use xlink:href="#path851" />
    </clipPath>
    <defs>
      <style type="text/css"></style>
    </defs>
    <path d="M512 111.702058c-221.079164 0-400.297942 179.219801-400.297942 400.297942 0 221.079164 179.218778 400.297942 400.297942 400.297942 221.078141 0 400.297942-179.218778 400.297942-400.297942C912.297942 290.921859 733.078141 111.702058 512 111.702058zM701.376115 702.651155c-8.806573 8.807596-23.085788 8.807596-31.893384 0L510.688121 543.856545l-158.223604 158.224628c-8.807596 8.806573-23.086811 8.806573-31.893384 0-8.807596-8.807596-8.807596-23.085788 0-31.894408l158.223604-158.223604L322.588069 355.75547c-8.807596-8.807596-8.807596-23.085788 0-31.892361 8.806573-8.807596 23.085788-8.807596 31.893384 0l156.206668 156.206668 155.061588-159.363568c8.807596-8.807596 23.085788-8.807596 31.893384 0 8.806573 8.807596 8.807596 23.085788 0 31.893384L542.581506 511.963161l158.794609 158.795633C710.183711 679.565367 710.183711 693.844581 701.376115 702.651155z" p-id="2379" fill="#999999"></path>
    <filter x="-50.00%" y="-50.00%" width="200.00%" height="200.00%" filterUnits="objectBoundingBox" id="filter853">
      <feColorMatrix type="matrix" values="1 0 0 0 0  0 1 0 0 0  0 0 1 0 0  0 0 0 1 0  " in="SourceGraphic" />
    </filter>
  </defs>
  <g transform="matrix(1 0 0 1 -802 -246 )">
    <g transform="matrix(0.0185546875 0 0 0.0185546875 802 246.5 )" clip-path="url(#clip852)" filter="url(#filter853)">
      <path d="M512 111.702058c-221.079164 0-400.297942 179.219801-400.297942 400.297942 0 221.079164 179.218778 400.297942 400.297942 400.297942 221.078141 0 400.297942-179.218778 400.297942-400.297942C912.297942 290.921859 733.078141 111.702058 512 111.702058zM701.376115 702.651155c-8.806573 8.807596-23.085788 8.807596-31.893384 0L510.688121 543.856545l-158.223604 158.224628c-8.807596 8.806573-23.086811 8.806573-31.893384 0-8.807596-8.807596-8.807596-23.085788 0-31.894408l158.223604-158.223604L322.588069 355.75547c-8.807596-8.807596-8.807596-23.085788 0-31.892361 8.806573-8.807596 23.085788-8.807596 31.893384 0l156.206668 156.206668 155.061588-159.363568c8.807596-8.807596 23.085788-8.807596 31.893384 0 8.806573 8.807596 8.807596 23.085788 0 31.893384L542.581506 511.963161l158.794609 158.795633C710.183711 679.565367 710.183711 693.844581 701.376115 702.651155z" p-id="2379" fill="#999999"></path>
    </g>
    <path d="M 802.5 265.5  L 802.5 246.5  L 820.5 246.5  L 820.5 265.5  L 802.5 265.5  Z " stroke-width="1" stroke="#ffffff" fill="none" />
  </g>
</svg>