<?xml version="1.0" encoding="utf-8"?>
<svg version="1.1" xmlns:xlink="http://www.w3.org/1999/xlink" width="30px" height="30px" xmlns="http://www.w3.org/2000/svg">
  <defs>
    <path d="M 0 0  L 1024 0  L 1024 1024  L 0 1024  Z " fill-rule="evenodd" fill="black" id="path1495" />
    <clipPath id="clip1496">
      <use xlink:href="#path1495" />
    </clipPath>
    <defs>
      <style type="text/css"></style>
    </defs>
    <path d="M754.782 212.596 512 455.368 269.218 212.596c-13.081-13.081-34.29-13.081-47.369 0-13.081 13.081-13.081 34.288 0 47.367l242.782 242.771L221.849 745.507c-13.081 13.081-13.081 34.288 0 47.367 13.081 13.081 34.29 13.081 47.369 0L512 550.103l242.782 242.771c13.081 13.081 34.289 13.081 47.37 0 13.081-13.081 13.081-34.288 0-47.367L559.37 502.735l242.782-242.771c13.081-13.081 13.081-34.288 0-47.367C789.07 199.517 767.862 199.517 754.782 212.596z" p-id="11493" fill="#1abc9c"></path>
    <filter x="-50.00%" y="-50.00%" width="200.00%" height="200.00%" filterUnits="objectBoundingBox" id="filter1497">
      <feColorMatrix type="matrix" values="1 0 0 0 0  0 1 0 0 0  0 0 1 0 0  0 0 0 1 0  " in="SourceGraphic" />
    </filter>
  </defs>
  <g transform="matrix(1 0 0 1 -797 -221 )">
    <g transform="matrix(0.029296875 0 0 0.029296875 797 221 )" clip-path="url(#clip1496)" filter="url(#filter1497)">
      <path d="M754.782 212.596 512 455.368 269.218 212.596c-13.081-13.081-34.29-13.081-47.369 0-13.081 13.081-13.081 34.288 0 47.367l242.782 242.771L221.849 745.507c-13.081 13.081-13.081 34.288 0 47.367 13.081 13.081 34.29 13.081 47.369 0L512 550.103l242.782 242.771c13.081 13.081 34.289 13.081 47.37 0 13.081-13.081 13.081-34.288 0-47.367L559.37 502.735l242.782-242.771c13.081-13.081 13.081-34.288 0-47.367C789.07 199.517 767.862 199.517 754.782 212.596z" p-id="11493" fill="#1abc9c"></path>
    </g>
    <path d="M 797.5 250.5  L 797.5 221.5  L 826.5 221.5  L 826.5 250.5  L 797.5 250.5  Z " stroke-width="1" stroke="#ffffff" fill="none" />
  </g>
</svg>