<?xml version="1.0" encoding="utf-8"?>
<svg version="1.1" xmlns:xlink="http://www.w3.org/1999/xlink" width="20px" height="20px" xmlns="http://www.w3.org/2000/svg">
  <defs>
    <path d="M 0 0  L 100 0  L 100 100  L 0 100  Z " fill-rule="evenodd" fill="black" id="path1498" />
    <clipPath id="clip1499">
      <use xlink:href="#path1498" />
    </clipPath>
    <filter x="-50.00%" y="-50.00%" width="200.00%" height="200.00%" filterUnits="objectBoundingBox" id="filter1500">
      <feColorMatrix type="matrix" values="1 0 0 0 0  0 1 0 0 0  0 0 1 0 0  0 0 0 1 0  " in="SourceGraphic" />
    </filter>
  </defs>
  <g transform="matrix(1 0 0 1 -613 -546 )">
    <g transform="matrix(0.2 0 0 0.2 613 546 )" clip-path="url(#clip1499)" filter="url(#filter1500)">
      <rect x="0" y="0" width="100" height="100" fill="none" class="bk"></rect>
      <rect x="46.5" y="40" width="7" height="20" rx="5" ry="5" fill="#ffffff" transform="rotate(0 50 50) translate(0 -30)">
        <animate attributeName="opacity" from="1" to="0" dur="1s" begin="0s" repeatCount="indefinite" />
      </rect>
      <rect x="46.5" y="40" width="7" height="20" rx="5" ry="5" fill="#ffffff" transform="rotate(30 50 50) translate(0 -30)">
        <animate attributeName="opacity" from="1" to="0" dur="1s" begin="0.08333333333333333s" repeatCount="indefinite" />
      </rect>
      <rect x="46.5" y="40" width="7" height="20" rx="5" ry="5" fill="#ffffff" transform="rotate(60 50 50) translate(0 -30)">
        <animate attributeName="opacity" from="1" to="0" dur="1s" begin="0.16666666666666666s" repeatCount="indefinite" />
      </rect>
      <rect x="46.5" y="40" width="7" height="20" rx="5" ry="5" fill="#ffffff" transform="rotate(90 50 50) translate(0 -30)">
        <animate attributeName="opacity" from="1" to="0" dur="1s" begin="0.25s" repeatCount="indefinite" />
      </rect>
      <rect x="46.5" y="40" width="7" height="20" rx="5" ry="5" fill="#ffffff" transform="rotate(120 50 50) translate(0 -30)">
        <animate attributeName="opacity" from="1" to="0" dur="1s" begin="0.3333333333333333s" repeatCount="indefinite" />
      </rect>
      <rect x="46.5" y="40" width="7" height="20" rx="5" ry="5" fill="#ffffff" transform="rotate(150 50 50) translate(0 -30)">
        <animate attributeName="opacity" from="1" to="0" dur="1s" begin="0.4166666666666667s" repeatCount="indefinite" />
      </rect>
      <rect x="46.5" y="40" width="7" height="20" rx="5" ry="5" fill="#ffffff" transform="rotate(180 50 50) translate(0 -30)">
        <animate attributeName="opacity" from="1" to="0" dur="1s" begin="0.5s" repeatCount="indefinite" />
      </rect>
      <rect x="46.5" y="40" width="7" height="20" rx="5" ry="5" fill="#ffffff" transform="rotate(210 50 50) translate(0 -30)">
        <animate attributeName="opacity" from="1" to="0" dur="1s" begin="0.5833333333333334s" repeatCount="indefinite" />
      </rect>
      <rect x="46.5" y="40" width="7" height="20" rx="5" ry="5" fill="#ffffff" transform="rotate(240 50 50) translate(0 -30)">
        <animate attributeName="opacity" from="1" to="0" dur="1s" begin="0.6666666666666666s" repeatCount="indefinite" />
      </rect>
      <rect x="46.5" y="40" width="7" height="20" rx="5" ry="5" fill="#ffffff" transform="rotate(270 50 50) translate(0 -30)">
        <animate attributeName="opacity" from="1" to="0" dur="1s" begin="0.75s" repeatCount="indefinite" />
      </rect>
      <rect x="46.5" y="40" width="7" height="20" rx="5" ry="5" fill="#ffffff" transform="rotate(300 50 50) translate(0 -30)">
        <animate attributeName="opacity" from="1" to="0" dur="1s" begin="0.8333333333333334s" repeatCount="indefinite" />
      </rect>
      <rect x="46.5" y="40" width="7" height="20" rx="5" ry="5" fill="#ffffff" transform="rotate(330 50 50) translate(0 -30)">
        <animate attributeName="opacity" from="1" to="0" dur="1s" begin="0.9166666666666666s" repeatCount="indefinite" />
      </rect>
    </g>
    <path d="M 613.5 565.5  L 613.5 546.5  L 632.5 546.5  L 632.5 565.5  L 613.5 565.5  Z " stroke-width="1" stroke="#797979" fill="none" />
  </g>
</svg>